<svg height="70" viewBox="0 0 70 70" width="70" xmlns="http://www.w3.org/2000/svg" xmlns:xlink="http://www.w3.org/1999/xlink"><defs><linearGradient id="a" x1="0%" x2="95.687%" y1="3.207%" y2="96.222%"><stop offset="0" stop-color="#05e6f3"/><stop offset="1" stop-color="#02b3e4"/></linearGradient><rect id="b" height="40" rx="4" width="40"/><filter id="c" height="225%" width="225%" x="-52.5%" y="-50%"><feOffset dx="4" dy="5" in="SourceAlpha" result="shadowOffsetOuter1"/><feGaussianBlur in="shadowOffsetOuter1" result="shadowBlurOuter1" stdDeviation="7.5"/><feColorMatrix in="shadowBlurOuter1" values="0 0 0 0 0 0 0 0 0 0 0 0 0 0 0 0 0 0 0.148465806 0"/></filter></defs><g fill="none" fill-rule="evenodd"><g transform="translate(11 10)"><use fill="#000" filter="url(#c)" xlink:href="#b"/><use fill="url(#a)" xlink:href="#b"/></g><path d="m31.369 20.713c-.036-.054-.072-.09-.107-.143-.036-.054-.09-.072-.143-.107-.054-.036-.107-.054-.161-.09l-.16-.053a1.082 1.082 0 0 0 -.34 0l-.161.053c-.054.018-.107.054-.161.09-.054.035-.09.071-.143.107-.054.036-.071.09-.107.143s-.054.107-.09.16l-.053.161c-.018.054-.018.108-.018.18 0 .053 0 .106.018.178l.053.16c.018.054.054.108.09.161.036.054.071.09.107.143.036.036.09.072.143.108.054.035.107.053.16.089l.162.054c.053.017.107.017.178.017.054 0 .108 0 .179-.017l.16-.054a.724.724 0 0 0 .162-.09c.053-.035.089-.07.143-.107.035-.035.071-.089.107-.143.036-.053.053-.107.09-.16l.053-.161c.018-.054.018-.125.018-.179s0-.125-.018-.179l-.054-.16c-.053-.054-.071-.108-.107-.161zm4.083.821c-.44-.239-1.008-.092-1.246.348a.906.906 0 0 0 .348 1.246c.147.074.293.11.44.11.33 0 .641-.165.806-.476.257-.422.092-.99-.348-1.228zm3.535 3.451c-.254-.436-.817-.563-1.252-.309-.436.254-.563.817-.309 1.253.163.29.472.435.78.435a.88.88 0 0 0 .473-.127c.435-.272.58-.817.308-1.252zm-.383 5.137a.731.731 0 0 0 .09.162c.036.055.073.09.109.145.036.036.09.072.144.108s.108.054.162.09l.163.054a.556.556 0 0 0 .18.018c.054 0 .127 0 .18-.018l.163-.054c.054-.018.108-.054.163-.09.054-.036.09-.072.144-.108.036-.036.072-.09.108-.145.036-.054.054-.108.09-.162l.055-.162c.018-.055.018-.109.018-.18 0-.236-.09-.47-.271-.633-.036-.036-.09-.072-.144-.108-.055-.036-.109-.054-.163-.09l-.162-.054a1.093 1.093 0 0 0 -.343 0l-.163.054c-.054.018-.108.054-.162.09s-.09.072-.144.108a.919.919 0 0 0 -.271.632c0 .054 0 .108.018.18 0 .055.018.109.036.163zm-12.454 5.253.15.125c3.8 3.65 7.175 4.5 9.5 4.5 1.8 0 2.975-.525 3.2-.625 1.125-.425 2.025-1.5 2.075-1.55.4-.45.575-.925.525-1.425-.075-.65-.525-1.075-.65-1.175l-2.7-2.5c-.475-.475-.925-.55-1.225-.55-.6 0-1 .375-1.075.475l-1.3 1.25c-.15.15-.375.175-.575.1a14.988 14.988 0 0 1 -3.8-2.675l-.1-.1c-1.175-1.125-2.1-2.325-2.825-3.675a.493.493 0 0 1 .075-.575l1.2-1.375c.075-.1.425-.5.425-1.1 0-.3-.125-.75-.6-1.2l-2.7-2.55c-.1-.125-.55-.55-1.2-.575-.5-.025-.95.175-1.4.575-.05.05-1.075 1-1.45 2.15-.2.5-2.35 6.025 4.45 12.475zm-3.525-12.1.025-.05c.275-.875 1.175-1.725 1.2-1.725.225-.2.425-.325.625-.325h.025c.3 0 .525.25.525.25l2.725 2.6c.175.175.275.325.275.475 0 .225-.15.4-.15.4l-1.225 1.4a1.516 1.516 0 0 0 -.2 1.725c.775 1.425 1.775 2.725 3.025 3.925l.1.1a15.878 15.878 0 0 0 4.05 2.85c.575.275 1.25.175 1.7-.275l1.325-1.275.025-.025s.175-.15.375-.175c.15 0 .325.075.5.275l2.7 2.575.025.025s.25.225.275.525c.025.2-.075.425-.3.675s-.95 1-1.675 1.25l-.05.025c-.2.1-5.15 2.475-11.55-3.7l-.15-.15c-6.425-6.125-4.3-11.175-4.2-11.375z" fill="#fff" fill-rule="nonzero"/></g></svg>